{"title":"Summer in February (2013) 480p BluRay x264 375MB Dual Audio [ En","uid":9510965,"size":393742586,"categoryP":"video","categoryS":"movies","magnet":"?xt=urn:btih:d90577fa33e58e4c6c33af819c1e6d7040775f59&amp;dn=Summer+in+February+%282013%29+480p+BluRay+x264+375MB+Dual+Audio+%5B+En&amp;tr=udp%3A%2F%2Ftracker.openbittorrent.com%3A80&amp;tr=udp%3A%2F%2Fopen.demonii.com%3A1337&amp;tr=udp%3A%2F%2Ftracker.coppersurfer.tk%3A6969&amp;tr=udp%3A%2F%2Fexodus.desync.com%3A6969","seeders":1,"leechers":0,"uploader":"Chaudhary1","files":2,"time":1390411826,"description":"Summer in February (2013) 480p BluRay x264 375MB Dual Audio [ Eng- Hindi] Chaudhary\n\n &lt;a href=&quot;\nhttp://s23.postimg.org/y52d7w8h7/Summer_in_February_2013_BR.jpg&quot; rel=&quot;nofollow&quot; target=&quot;_NEW&quot;&gt;\nhttp://s23.postimg.org/y52d7w8h7/Summer_in_February_2013_BR.jpg&lt;/a&gt;\n\nComplete name                            : Summer in February (2013) 480p BluRay x264 375MB Dual Audio [ Eng- Hindi] Chaudhary.mkv\nFormat                                   : Matroska\nFormat version                           : Version 4 / Version 2\nFile size                                : 373 MiB\nDuration                                 : 1h 40mn\nOverall bit rate                         : 517 Kbps\nMovie name                               : Chaudhary\n\n\nVideo\nID                                       : 1\nFormat                                   : AVC\nFormat/Info                              : Advanced Video Codec\nFormat profile                           : &lt;a class=&quot;__cf_email__&quot; href=&quot;/cdn-cgi/l/email-protection&quot; data-cfemail=&quot;763e1f111e363a455847&quot;&gt;[email&amp;#160;protected]&lt;/a&gt;&lt;script cf-hash='f9e31' type=&quot;text/javascript&quot;&gt;\n/* &lt;![CDATA[ */!function(){try{var t=&quot;currentScript&quot;in document?document.currentScript:function(){for(var t=document.getElementsByTagName(&quot;script&quot;),e=t.length;e--;)if(t[e].getAttribute(&quot;cf-hash&quot;))return t[e]}();if(t&amp;&amp;t.previousSibling){var e,r,n,i,c=t.previousSibling,a=c.getAttribute(&quot;data-cfemail&quot;);if(a){for(e=&quot;&quot;,r=parseInt(a.substr(0,2),16),n=2;a.length-n;n+=2)i=parseInt(a.substr(n,2),16)^r,e+=String.fromCharCode(i);e=document.createTextNode(e),c.parentNode.replaceChild(e,c)}}}catch(u){}}();/* ]]&gt; */&lt;/script&gt;\nFormat settings, CABAC                   : Yes\nFormat settings, ReFrames                : 4 frames\nCodec ID                                 : V_MPEG4/ISO/AVC\nDuration                                 : 1h 40mn\nBit rate                                 : 419 Kbps\nWidth                                    : 720 pixels\nHeight                                   : 300 pixels\nDisplay aspect ratio                     : 2.40:1\nOriginal display aspect ratio            : 2.40:1\nFrame rate                               : 23.976 fps\nColor space                              : YUV\nChroma subsampling                       : 4:2:0\nBit depth                                : 8 bits\nScan type                                : Progressive\nBits/(Pixel*Frame)                       : 0.081\nStream size                              : 296 MiB (79%)\nTitle                                    : Chaudhary\nWriting library                          : x264 core 138 r2358 \nLanguage                                 : English\nDefault                                  : Yes\nForced                                   : No\n\nAudio #1\nID                                       : 2\nFormat                                   : MPEG Audio\nFormat version                           : Version 2\nFormat profile                           : Layer 3\nMode                                     : Joint stereo\nCodec ID                                 : A_MPEG/L3\nCodec ID/Hint                            : MP3\nDuration                                 : 1h 40mn\nBit rate mode                            : Constant\nChannel(s)                               : 2 channels\nCompression mode                         : Lossy\nStream size                              : 23.1 MiB (6%)\nTitle                                    : Chaudhary\nWriting library                          : LAME3.99.5\nLanguage                                 : English\nDefault                                  : Yes\nForced                                   : No\n\nAudio #2\nID                                       : 3\nFormat                                   : AC-3\nFormat/Info                              : Audio Coding 3\nMode extension                           : CM (complete main)\nCodec ID                                 : A_AC3\nDuration                                 : 1h 40mn\nBit rate mode                            : Constant\nBit rate                                 : 64.0 Kbps\nChannel(s)                               : 2 channels\nChannel positions                        : Front: L R\nSampling rate                            : 44.1 KHz\nBit depth                                : 16 bits\nCompression mode                         : Lossy\nStream size                              : 46.2 MiB (12%)\nTitle                                    : Chaudhary\nLanguage                                 : Hindi\nDefault                                  : No\nForced                                   : No\n &lt;a href=&quot;\nhttp://i.imgur.com/slPUFPm.jpg&quot; rel=&quot;nofollow&quot; target=&quot;_NEW&quot;&gt;\nhttp://i.imgur.com/slPUFPm.jpg&lt;/a&gt; &lt;a href=&quot;\nhttp://i.imgur.com/JvIy1tl.jpg&quot; rel=&quot;nofollow&quot; target=&quot;_NEW&quot;&gt;\nhttp://i.imgur.com/JvIy1tl.jpg&lt;/a&gt; &lt;a href=&quot;\nhttp://i.imgur.com/v8KPS1i.jpg&quot; rel=&quot;nofollow&quot; target=&quot;_NEW&quot;&gt;\nhttp://i.imgur.com/v8KPS1i.jpg&lt;/a&gt; &lt;a href=&quot;\nhttp://i.imgur.com/5MaSI0A.jpg&quot; rel=&quot;nofollow&quot; target=&quot;_NEW&quot;&gt;\nhttp://i.imgur.com/5MaSI0A.jpg&lt;/a&gt; &lt;a href=&quot;\nhttp://i.imgur.com/SeXYlw1.jpg&quot; rel=&quot;nofollow&quot; target=&quot;_NEW&quot;&gt;\nhttp://i.imgur.com/SeXYlw1.jpg&lt;/a&gt; &lt;a href=&quot;\nhttp://i.imgur.com/ApVHtw7.jpg&quot; rel=&quot;nofollow&quot; target=&quot;_NEW&quot;&gt;\nhttp://i.imgur.com/ApVHtw7.jpg&lt;/a&gt;\n\n\nNote:\n\nThanks To my Bro Mr.khan\n\n\nThanks Rans Clubz For Hindi Audio","torrent":{"xt":"urn:btih:d90577fa33e58e4c6c33af819c1e6d7040775f59","amp;dn":"Summer+in+February+%282013%29+480p+BluRay+x264+375MB+Dual+Audio+%5B+En","amp;tr":["udp%3A%2F%2Ftracker.openbittorrent.com%3A80","udp%3A%2F%2Fopen.demonii.com%3A1337","udp%3A%2F%2Ftracker.coppersurfer.tk%3A6969","udp%3A%2F%2Fexodus.desync.com%3A6969"],"infoHash":"d90577fa33e58e4c6c33af819c1e6d7040775f59","infoHashBuffer":{"type":"Buffer","data":[217,5,119,250,51,229,142,76,108,51,175,129,156,30,109,112,64,119,95,89]},"announce":[],"urlList":[]}}